#Comment line ignore any data following # character 
#Hierarchical Translation and Rotation (.htr) file 
[Header]	
#Header keywords are followed by a single value 
FileType HTR		#Single word string
DataType HTRS		#Translation followed by rotation and scale data
FileVersion 1		#integer
NumSegments 64		#integer
NumFrames 3		#integer
DataFrameRate 30		#integer, data frame rate in this file
EulerRotationOrder ZYX
CalibrationUnits mm
RotationUnits Degrees
GlobalAxisofGravity Y
BoneLengthAxis Y
ScaleFactor 1.00
[SegmentNames&Hierarchy]
#CHILD	PARENT
Pinger_Root GLOBAL
Pelvis Pinger_Root
L_Hip Pelvis
R_Hip Pelvis
Rear_Leg01 Pelvis
Spine1 Pelvis
L_Leg01 L_Hip
L_Leg02 L_Leg01
L_Leg03 L_Leg02
L_Foot L_Leg03
L_Toe1_01 L_Foot
L_Toe2_01 L_Foot
L_Toe3_01 L_Foot
planeAlignerLeft L_Foot
L_Toe1_02 L_Toe1_01
L_Toe1_03 L_Toe1_02
L_Toe2_02 L_Toe2_01
L_Toe2_03 L_Toe2_02
L_Toe3_02 L_Toe3_01
L_Toe3_03 L_Toe3_02
planeLockWeightLeft planeAlignerLeft
R_Leg01 R_Hip
R_Leg02 R_Leg01
R_Leg03 R_Leg02
R_Foot R_Leg03
planeAlignerRight R_Foot
R_Toe1_01 R_Foot
R_Toe2_01 R_Foot
R_Toe3_01 R_Foot
planeLockWeightRight planeAlignerRight
R_Toe1_02 R_Toe1_01
R_Toe1_03 R_Toe1_02
R_Toe2_02 R_Toe2_01
R_Toe2_03 R_Toe2_02
R_Toe3_02 R_Toe3_01
R_Toe3_03 R_Toe3_02
Rear_Leg02 Rear_Leg01
Rear_Leg03 Rear_Leg02
Rear_Leg04 Rear_Leg03
Rear_Foot Rear_Leg04
planeAlignerCenter Rear_Foot
Rear_Toe1_01 Rear_Foot
Rear_Toe2_01 Rear_Foot
Rear_Toe3_01 Rear_Foot
planeLockWeightCenter planeAlignerCenter
Rear_Toe1_02 Rear_Toe1_01
Rear_Toe1_03 Rear_Toe1_02
Rear_Toe2_02 Rear_Toe2_01
Rear_Toe2_03 Rear_Toe2_02
Rear_Toe3_02 Rear_Toe3_01
Rear_Toe3_03 Rear_Toe3_02
Back_Bone Spine1
Head Spine1
Motor_Bone Back_Bone
Ping_Mechanism Back_Bone
BN_LookIK Head
bottomMouth Head
L_Mouth01 Head
L_mouthFront Head
mouthGun Head
R_Mouth01 Head
R_mouthFront Head
TopMouth Head
weapon_bone Head
[BasePosition]
#SegmentName Tx, Ty, Tz, Rx, Ry, Rz, BoneLength
Pinger_Root 0.000000 0.000000 0.000000 -90.000000 0.000000 0.000000 10.000000 
Pelvis 0.000000 0.000000 0.000000 0.000000 0.000000 0.000000 10.000000 
L_Hip 0.000000 0.000000 0.000000 0.000000 0.000000 0.000000 10.000000 
R_Hip 0.000000 0.000000 0.000000 0.000000 0.000000 0.000000 10.000000 
Rear_Leg01 0.000000 0.000000 0.000000 0.000000 0.000000 0.000000 10.000000 
Spine1 0.000000 0.000000 0.000000 0.000000 0.000000 0.000000 10.000000 
L_Leg01 0.000000 0.000000 0.000000 0.000000 0.000000 0.000000 10.000000 
L_Leg02 0.000000 0.000000 0.000000 0.000000 0.000000 0.000000 10.000000 
L_Leg03 0.000000 0.000000 0.000000 0.000000 0.000000 0.000000 10.000000 
L_Foot 0.000000 0.000000 0.000000 0.000000 0.000000 0.000000 10.000000 
L_Toe1_01 0.000000 0.000000 0.000000 0.000000 0.000000 0.000000 10.000000 
L_Toe2_01 0.000000 0.000000 0.000000 0.000000 0.000000 0.000000 10.000000 
L_Toe3_01 0.000000 0.000000 0.000000 0.000000 0.000000 0.000000 10.000000 
planeAlignerLeft 0.000000 0.000000 0.000000 0.000000 0.000000 0.000000 10.000000 
L_Toe1_02 0.000000 0.000000 0.000000 0.000000 0.000000 0.000000 10.000000 
L_Toe1_03 0.000000 0.000000 0.000000 0.000000 0.000000 0.000000 10.000000 
L_Toe2_02 0.000000 0.000000 0.000000 0.000000 0.000000 0.000000 10.000000 
L_Toe2_03 0.000000 0.000000 0.000000 0.000000 0.000000 0.000000 10.000000 
L_Toe3_02 0.000000 0.000000 0.000000 0.000000 0.000000 0.000000 10.000000 
L_Toe3_03 0.000000 0.000000 0.000000 0.000000 0.000000 0.000000 10.000000 
planeLockWeightLeft 0.000000 0.000000 0.000000 0.000000 0.000000 0.000000 10.000000 
R_Leg01 0.000000 0.000000 0.000000 0.000000 0.000000 0.000000 10.000000 
R_Leg02 0.000000 0.000000 0.000000 0.000000 0.000000 0.000000 10.000000 
R_Leg03 0.000000 0.000000 0.000000 0.000000 0.000000 0.000000 10.000000 
R_Foot 0.000000 0.000000 0.000000 0.000000 0.000000 0.000000 10.000000 
planeAlignerRight 0.000000 0.000000 0.000000 0.000000 0.000000 0.000000 10.000000 
R_Toe1_01 0.000000 0.000000 0.000000 0.000000 0.000000 0.000000 10.000000 
R_Toe2_01 0.000000 0.000000 0.000000 0.000000 0.000000 0.000000 10.000000 
R_Toe3_01 0.000000 0.000000 0.000000 0.000000 0.000000 0.000000 10.000000 
planeLockWeightRight 0.000000 0.000000 0.000000 0.000000 0.000000 0.000000 10.000000 
R_Toe1_02 0.000000 0.000000 0.000000 0.000000 0.000000 0.000000 10.000000 
R_Toe1_03 0.000000 0.000000 0.000000 0.000000 0.000000 0.000000 10.000000 
R_Toe2_02 0.000000 0.000000 0.000000 0.000000 0.000000 0.000000 10.000000 
R_Toe2_03 0.000000 0.000000 0.000000 0.000000 0.000000 0.000000 10.000000 
R_Toe3_02 0.000000 0.000000 0.000000 0.000000 0.000000 0.000000 10.000000 
R_Toe3_03 0.000000 0.000000 0.000000 0.000000 0.000000 0.000000 10.000000 
Rear_Leg02 0.000000 0.000000 0.000000 0.000000 0.000000 0.000000 10.000000 
Rear_Leg03 0.000000 0.000000 0.000000 0.000000 0.000000 0.000000 10.000000 
Rear_Leg04 0.000000 0.000000 0.000000 0.000000 0.000000 0.000000 10.000000 
Rear_Foot 0.000000 0.000000 0.000000 0.000000 0.000000 0.000000 10.000000 
planeAlignerCenter 0.000000 0.000000 0.000000 0.000000 0.000000 0.000000 10.000000 
Rear_Toe1_01 0.000000 0.000000 0.000000 0.000000 0.000000 0.000000 10.000000 
Rear_Toe2_01 0.000000 0.000000 0.000000 0.000000 0.000000 0.000000 10.000000 
Rear_Toe3_01 0.000000 0.000000 0.000000 0.000000 0.000000 0.000000 10.000000 
planeLockWeightCenter 0.000000 0.000000 0.000000 0.000000 0.000000 0.000000 10.000000 
Rear_Toe1_02 0.000000 0.000000 0.000000 0.000000 0.000000 0.000000 10.000000 
Rear_Toe1_03 0.000000 0.000000 0.000000 0.000000 0.000000 0.000000 10.000000 
Rear_Toe2_02 0.000000 0.000000 0.000000 0.000000 0.000000 0.000000 10.000000 
Rear_Toe2_03 0.000000 0.000000 0.000000 0.000000 0.000000 0.000000 10.000000 
Rear_Toe3_02 0.000000 0.000000 0.000000 0.000000 0.000000 0.000000 10.000000 
Rear_Toe3_03 0.000000 0.000000 0.000000 0.000000 0.000000 0.000000 10.000000 
Back_Bone 0.000000 0.000000 0.000000 0.000000 0.000000 0.000000 10.000000 
Head 0.000000 0.000000 0.000000 0.000000 0.000000 0.000000 10.000000 
Motor_Bone 0.000000 0.000000 0.000000 0.000000 0.000000 0.000000 10.000000 
Ping_Mechanism 0.000000 0.000000 0.000000 0.000000 0.000000 0.000000 10.000000 
BN_LookIK 0.000000 0.000000 0.000000 0.000000 0.000000 0.000000 10.000000 
bottomMouth 0.000000 0.000000 0.000000 0.000000 0.000000 0.000000 10.000000 
L_Mouth01 0.000000 0.000000 0.000000 0.000000 0.000000 0.000000 10.000000 
L_mouthFront 0.000000 0.000000 0.000000 0.000000 0.000000 0.000000 10.000000 
mouthGun 0.000000 0.000000 0.000000 0.000000 0.000000 0.000000 10.000000 
R_Mouth01 0.000000 0.000000 0.000000 0.000000 0.000000 0.000000 10.000000 
R_mouthFront 0.000000 0.000000 0.000000 0.000000 0.000000 0.000000 10.000000 
TopMouth 0.000000 0.000000 0.000000 0.000000 0.000000 0.000000 10.000000 
weapon_bone 0.000000 0.000000 0.000000 0.000000 0.000000 0.000000 10.000000 
#Beginning of Data. Separated by tabs
#Fr	Tx	Ty	Tz	Rx	Ry	Rz	SF
[Pinger_Root]
1 0.000000 0.000000 0.000000 -0.000075 -0.000000 -0.000020 0.000000
2 0.000000 0.000000 0.000000 -0.000075 -0.000000 -0.000020 0.000000
3 0.000000 0.000000 0.000000 -0.000075 -0.000000 -0.000020 0.000000
[Pelvis]
1 72.227875 916.536438 4432.233398 -100.363472 -85.972015 92.748032 4526.582520
2 69.356606 916.468750 4432.499512 -100.168953 -86.265923 92.550705 4526.784180
3 61.184525 916.272095 4433.302246 -99.279488 -87.097687 91.659409 4527.413086
[L_Hip]
1 5.766392 125.831482 872.656799 160.158691 -45.484905 122.312202 881.701050
2 5.766392 125.831482 872.656799 160.158691 -45.484905 122.312202 881.701050
3 5.766392 125.831482 872.656799 160.158691 -45.484905 122.312202 881.701050
[R_Hip]
1 5.765438 125.836372 -872.654907 38.087841 49.812687 125.703735 881.699829
2 5.765438 125.836372 -872.654907 37.707649 50.063797 125.209267 881.699829
3 5.765438 125.836372 -872.654907 36.588482 50.767368 123.752457 881.699829
[Rear_Leg01]
1 -192.298416 -925.602966 -0.001907 169.678055 1.945035 -159.756363 945.367432
2 -192.298416 -925.602966 -0.001907 169.708176 2.055051 -159.437805 945.367432
3 -192.298416 -925.602966 -0.001907 169.804031 2.370555 -158.514771 945.367432
[Spine1]
1 290.604584 5.007505 0.000477 7.265744 -0.619986 19.266817 290.647736
2 290.604584 5.007505 0.000477 7.243213 -0.585053 19.565525 290.647736
3 290.604584 5.007505 0.000477 7.175439 -0.486513 20.416618 290.647736
[L_Leg01]
1 761.932007 -0.002384 -0.069261 16.441452 -22.248720 -7.774416 761.932068
2 761.932007 -0.002384 -0.069261 16.655861 -22.174730 -8.306204 761.932068
3 761.932007 -0.002384 -0.069261 17.255508 -21.946259 -9.825137 761.932068
[L_Leg02]
1 1441.140503 -0.000954 -0.000715 3.501114 -0.193711 -137.224915 1441.140503
2 1441.140503 -0.000954 -0.000715 3.473069 -0.190291 -136.980545 1441.140503
3 1441.140503 -0.000954 -0.000715 3.399274 -0.193116 -136.278503 1441.140503
[L_Leg03]
1 1686.963989 -0.000715 -0.000954 -0.034081 0.012470 119.122368 1686.963989
2 1686.963989 -0.000715 -0.000954 -0.032669 0.013283 119.042015 1686.963989
3 1686.963989 -0.000715 -0.000954 -0.031258 0.014097 118.961655 1686.963989
[L_Foot]
1 3041.570068 -30.715107 11.297464 11.373557 12.877206 61.480309 3041.746094
2 3041.570068 -30.715107 11.297464 11.488020 12.919705 61.470467 3041.746094
3 3041.570068 -30.715107 11.297464 11.602490 12.962220 61.460701 3041.746094
[L_Toe1_01]
1 -188.216690 -224.732346 -21.137953 93.865608 -6.609623 -173.660828 293.899567
2 -188.216690 -224.732346 -21.137953 93.877426 -6.590205 -173.793106 293.899567
3 -188.216690 -224.732346 -21.137953 93.889198 -6.570762 -173.925385 293.899567
[L_Toe2_01]
1 200.746536 -219.926590 148.838394 -90.736206 -26.388199 -50.950611 332.896027
2 200.746536 -219.926590 148.838394 -90.791756 -26.393555 -50.816296 332.896027
3 200.746536 -219.926590 148.838394 -90.847336 -26.398798 -50.681969 332.896027
[L_Toe3_01]
1 188.832520 -219.859131 -191.078659 -99.664520 14.513768 -66.003906 347.140900
2 188.832520 -219.859131 -191.078659 -99.651253 14.569274 -65.869850 347.140900
3 188.832520 -219.859131 -191.078659 -99.637840 14.624755 -65.735741 347.140900
[planeAlignerLeft]
1 0.812531 -811.448792 -0.314951 0.000000 -90.000000 -90.001900 811.449280
2 0.812531 -811.448792 -0.314951 0.000000 -90.000000 -90.001900 811.449280
3 0.812531 -811.448792 -0.314951 0.000000 -90.000000 -90.001900 811.449280
[L_Toe1_02]
1 413.761139 0.000477 0.000000 0.001384 -25.967253 0.001384 413.761139
2 413.761139 0.000477 0.000000 0.001384 -25.950209 0.001384 413.761139
3 413.761139 0.000477 0.000000 0.001384 -25.933159 0.001384 413.761139
[L_Toe1_03]
1 464.317322 0.000358 -0.000089 0.003951 55.444382 0.003951 464.317322
2 464.317322 0.000358 -0.000089 0.003964 55.553387 0.003964 464.317322
3 464.317322 0.000358 -0.000089 0.003976 55.662376 0.003976 464.317322
[L_Toe2_02]
1 342.235809 -0.000477 0.000238 0.001186 -73.126877 0.001186 342.235809
2 342.235809 -0.000477 0.000238 0.001186 -73.210770 0.001186 342.235809
3 342.235809 -0.000477 0.000238 0.001186 -73.294609 0.001186 342.235809
[L_Toe2_03]
1 420.210846 -0.000715 0.000000 -0.026661 87.355957 -0.023164 420.210846
2 420.210846 -0.000715 0.000000 -0.028143 87.504639 -0.024646 420.210846
3 420.210846 -0.000715 0.000000 -0.029812 87.652901 -0.026315 420.210846
[L_Toe3_02]
1 329.270111 0.000954 0.000000 0.001177 -81.019150 0.001177 329.270111
2 329.270111 0.000954 0.000000 0.001177 -81.087189 0.001177 329.270111
3 329.270111 0.000954 0.000000 0.001177 -81.155067 0.001177 329.270111
[L_Toe3_03]
1 439.137451 -0.001907 0.000954 -179.996872 76.505814 -179.993347 439.137451
2 439.137451 -0.001907 0.000954 -179.996902 76.395706 -179.993393 439.137451
3 439.137451 -0.001907 0.000954 -179.996948 76.285538 -179.993423 439.137451
[planeLockWeightLeft]
1 -0.000954 0.000238 -0.000305 -0.011826 -0.004376 0.005620 0.001029
2 -0.000954 0.000238 -0.000305 -0.011826 -0.004376 0.005620 0.001029
3 -0.000954 0.000238 -0.000305 -0.011826 -0.004376 0.005620 0.001029
[R_Leg01]
1 761.455627 -0.001907 -0.000358 121.727440 -13.797487 38.816422 761.455688
2 761.455627 -0.001907 -0.000358 121.801888 -13.732790 39.157181 761.455688
3 761.455627 -0.001907 -0.000358 122.024216 -13.543414 40.118595 761.455688
[R_Leg02]
1 1441.140625 0.000000 -0.000238 -1.671787 -0.355913 -128.216278 1441.140625
2 1441.140625 0.000000 -0.000238 -1.692591 -0.339510 -128.361954 1441.140625
3 1441.140625 0.000000 -0.000238 -1.713435 -0.323160 -128.507614 1441.140625
[R_Leg03]
1 1686.963989 0.000954 0.001431 0.085899 -0.045774 133.730667 1686.963989
2 1686.963989 0.000954 0.001431 0.086030 -0.045528 133.402390 1686.963989
3 1686.963989 0.000954 0.001431 0.081874 -0.046815 132.463776 1686.963989
[R_Foot]
1 3041.560059 -30.531288 -11.204481 -7.504396 -24.697910 62.052555 3041.734131
2 3041.560059 -30.531288 -11.204481 -7.527762 -24.545193 62.210690 3041.734131
3 3041.560059 -30.531288 -11.204481 -7.591427 -24.110279 62.635738 3041.734131
[planeAlignerRight]
1 -0.635147 -812.270569 -0.364304 0.000000 -89.960434 -90.005180 812.270874
2 -0.635147 -812.270569 -0.364304 0.000000 -89.960434 -90.005180 812.270874
3 -0.635147 -812.270569 -0.364304 0.000000 -89.960434 -90.005180 812.270874
[R_Toe1_01]
1 -188.383347 -224.864899 21.052242 76.800766 -0.647496 -173.626068 294.101532
2 -188.383347 -224.864899 21.052242 76.805733 -0.670583 -173.716888 294.101532
3 -188.383347 -224.864899 21.052242 76.810715 -0.693662 -173.807709 294.101532
[R_Toe2_01]
1 200.637817 -220.002121 -148.787384 -91.347359 32.981472 -58.409321 332.857574
2 200.637817 -220.002121 -148.787384 -91.296097 32.994621 -58.309490 332.857574
3 200.637817 -220.002121 -148.787384 -91.244797 33.007706 -58.209644 332.857574
[R_Toe3_01]
1 188.606735 -220.092957 191.126343 -73.152809 -8.762133 -73.050743 347.192566
2 188.606735 -220.092957 191.126343 -73.146584 -8.794237 -72.978668 347.192566
3 188.606735 -220.092957 191.126343 -73.140388 -8.826338 -72.906563 347.192566
[planeLockWeightRight]
1 -0.000477 0.000000 0.000000 -0.011823 -0.004379 -0.000027 0.000477
2 -0.000477 0.000000 0.000000 -0.011823 -0.004379 -0.000027 0.000477
3 -0.000477 0.000000 0.000000 -0.011823 -0.004379 -0.000027 0.000477
[R_Toe1_02]
1 413.762085 0.000477 -0.000119 0.001395 -24.497503 0.001395 413.762085
2 413.762085 0.000477 -0.000119 0.001396 -24.481379 0.001396 413.762085
3 413.762085 0.000477 -0.000119 0.001396 -24.465252 0.001396 413.762085
[R_Toe1_03]
1 464.317810 0.000000 0.001088 0.006953 70.565895 0.006953 464.317810
2 464.317810 0.000000 0.001088 0.006987 70.661430 0.006987 464.317810
3 464.317810 0.000000 0.001088 0.007022 70.756973 0.007022 464.317810
[R_Toe2_02]
1 342.234741 -0.000954 0.000238 0.001196 -67.839958 0.001196 342.234741
2 342.234741 -0.000954 0.000238 0.001196 -67.914597 0.001196 342.234741
3 342.234741 -0.000954 0.000238 0.001196 -67.989189 0.001196 342.234741
[R_Toe2_03]
1 420.210846 0.000715 -0.000268 0.008893 74.833809 0.008893 420.210846
2 420.210846 0.000715 -0.000268 0.008952 74.933556 0.008952 420.210846
3 420.210846 0.000715 -0.000268 0.009011 75.033295 0.009011 420.210846
[R_Toe3_02]
1 329.270355 -0.000477 -0.000954 0.001184 -75.035255 0.001184 329.270355
2 329.270355 -0.000477 -0.000954 0.001184 -75.105797 0.001184 329.270355
3 329.270355 -0.000477 -0.000954 0.001184 -75.176285 0.001184 329.270355
[R_Toe3_03]
1 439.137939 0.000238 0.001431 -0.013945 84.597450 -0.010445 439.137939
2 439.137939 0.000238 0.001431 -0.014187 84.702431 -0.010686 439.137939
3 439.137939 0.000238 0.001431 -0.014438 84.807251 -0.010937 439.137939
[Rear_Leg02]
1 1162.777710 -0.029802 0.005960 0.609600 -2.923043 -123.231339 1162.777710
2 1162.777710 -0.029802 0.005960 0.620180 -2.920224 -123.383392 1162.777710
3 1162.777710 -0.029802 0.005960 0.637612 -2.915891 -123.804886 1162.777710
[Rear_Leg03]
1 607.192505 -0.013351 -0.073195 0.006475 -0.002109 64.292427 607.192505
2 607.192505 -0.013351 -0.073195 0.007867 -0.002996 64.440605 607.192505
3 607.192505 -0.013351 -0.073195 0.009257 -0.003887 64.588760 607.192505
[Rear_Leg04]
1 995.874512 -0.020504 -0.011921 -0.040515 -0.015168 58.222317 995.874573
2 995.874512 -0.020504 -0.011921 -0.040542 -0.015094 58.431995 995.874573
3 995.874512 -0.020504 -0.011921 -0.040570 -0.015020 58.641655 995.874573
[Rear_Foot]
1 3096.176270 -0.067472 -0.041425 -143.706863 85.755592 48.996586 3096.176270
2 3096.176270 -0.067472 -0.041425 -142.895676 85.843201 49.892200 3096.176270
3 3096.176270 -0.067472 -0.041425 -142.047760 85.929604 50.824177 3096.176270
[planeAlignerCenter]
1 0.350077 0.966311 -838.790894 0.000009 0.000003 -179.999985 838.791565
2 0.350077 0.966311 -838.790894 0.000009 0.000003 -179.999985 838.791565
3 0.350077 0.966311 -838.790894 0.000009 0.000003 -179.999985 838.791565
[Rear_Toe1_01]
1 0.653352 83.966492 -371.173737 0.289479 41.136200 90.406410 380.553192
2 0.653352 83.966492 -371.173737 0.289497 41.136219 90.406410 380.553192
3 0.653352 83.966492 -371.173737 0.289520 41.136246 90.406410 380.553192
[Rear_Toe2_01]
1 178.200760 -294.826019 -362.060547 -7.259789 33.851772 -66.228340 499.765686
2 178.200760 -294.826019 -362.060547 -7.259806 33.851791 -66.228340 499.765686
3 178.200760 -294.826019 -362.060547 -7.259830 33.851818 -66.228371 499.765686
[Rear_Toe3_01]
1 -153.359680 -308.780914 -362.060852 3.322300 32.989574 -112.582558 499.952881
2 -153.359680 -308.780914 -362.060852 3.322302 32.989567 -112.582558 499.952881
3 -153.359680 -308.780914 -362.060852 3.322302 32.989578 -112.582550 499.952881
[planeLockWeightCenter]
1 -0.000062 0.000238 0.000000 -0.011814 -0.004373 -0.000015 0.000246
2 -0.000062 0.000238 0.000000 -0.011814 -0.004373 -0.000015 0.000246
3 -0.000062 0.000238 0.000000 -0.011814 -0.004373 -0.000015 0.000246
[Rear_Toe1_02]
1 379.707825 0.194073 0.000477 -0.000261 -31.944153 0.006945 379.707855
2 379.707825 0.194073 0.000477 -0.000261 -31.944153 0.006945 379.707855
3 379.707825 0.194073 0.000477 -0.000261 -31.944164 0.006945 379.707855
[Rear_Toe1_03]
1 500.129700 0.165701 0.000119 0.000045 53.309292 0.007413 500.129761
2 500.129700 0.165701 0.000119 0.000045 53.309299 0.007413 500.129761
3 500.129700 0.165701 0.000119 0.000045 53.309292 0.007413 500.129761
[Rear_Toe2_02]
1 340.494507 0.000238 -0.000954 0.001191 -70.483078 0.001191 340.494507
2 340.494507 0.000238 -0.000954 0.001191 -70.483078 0.001191 340.494507
3 340.494507 0.000238 -0.000954 0.001191 -70.483078 0.001191 340.494507
[Rear_Toe2_03]
1 433.103577 0.000000 0.000238 0.007025 70.765938 0.007025 433.103546
2 433.103577 0.000000 0.000238 0.007025 70.765907 0.007025 433.103546
3 433.103577 0.000000 0.000238 0.007025 70.765900 0.007025 433.103546
[Rear_Toe3_02]
1 340.494141 -0.000358 -0.000477 0.001196 -67.923424 0.001196 340.494171
2 340.494141 -0.000358 -0.000477 0.001236 -67.923447 0.001136 340.494171
3 340.494141 -0.000358 -0.000477 0.001276 -67.923424 0.001076 340.494171
[Rear_Toe3_03]
1 433.103577 0.001431 -0.000238 0.005869 66.928558 0.005869 433.103546
2 433.103577 0.001431 -0.000238 0.005869 66.928535 0.005869 433.103546
3 433.103577 0.001431 -0.000238 0.005869 66.928490 0.005869 433.103546
[Back_Bone]
1 1312.175781 -701.934692 0.000954 1.476979 0.001718 -85.608841 1488.125488
2 1312.175781 -701.934692 0.000954 1.476947 0.001617 -85.668808 1488.125488
3 1312.175781 -701.934692 0.000954 1.476914 0.001516 -85.728752 1488.125488
[Head]
1 1406.159424 809.709290 0.001431 0.000625 -1.475623 7.768025 1622.625488
2 1406.159424 809.709290 0.001431 -0.105672 -1.508070 7.766984 1622.625488
3 1406.159424 809.709290 0.001431 -0.211971 -1.540518 7.766000 1622.625488
[Motor_Bone]
1 1158.364380 -417.834747 0.000477 -0.000105 0.000046 -105.985291 1231.419434
2 1158.364380 -417.834747 0.000477 -0.000105 0.000046 -105.985291 1231.419434
3 1158.364380 -417.834747 0.000477 -0.000105 0.000046 -105.985291 1231.419434
[Ping_Mechanism]
1 1233.748169 -441.769379 -0.318842 0.000103 -0.000053 82.120995 1310.455933
2 1232.382202 -441.193237 -0.184679 0.000103 -0.000053 82.120995 1308.975708
3 1228.509033 -439.521454 0.219207 0.000103 -0.000053 82.120995 1304.765747
[BN_LookIK]
1 193.241119 1380.371704 -0.002861 0.000000 89.965736 -31.038179 1393.832153
2 193.241119 1380.371704 -0.002861 0.000000 89.965736 -31.038179 1393.832153
3 193.241119 1380.371704 -0.002861 0.000000 89.965736 -31.038179 1393.832153
[bottomMouth]
1 -435.092926 615.759399 -0.000954 -0.000022 0.000016 73.527184 753.966492
2 -435.092926 615.759399 -0.000954 -0.000022 0.000016 73.527184 753.966492
3 -435.092926 615.759399 -0.000954 -0.000022 0.000016 73.527184 753.966492
[L_Mouth01]
1 554.440979 7.658243 838.222046 150.204178 23.759130 109.605339 1005.027161
2 554.440979 7.658243 838.222046 150.204178 23.759130 109.605339 1005.027161
3 554.440979 7.658243 838.222046 150.204178 23.759130 109.605339 1005.027161
[L_mouthFront]
1 551.629089 934.514771 339.150421 0.000081 2.804060 79.119301 1136.941284
2 551.629089 934.514771 339.150421 0.000081 2.804060 79.119301 1136.941284
3 551.629089 934.514771 339.150421 0.000081 2.804060 79.119301 1136.941284
[mouthGun]
1 55.332661 1627.420898 0.000000 0.000023 0.000009 -11.038128 1628.361328
2 55.332661 1627.420898 0.000000 0.000023 0.000009 -11.038128 1628.361328
3 55.332661 1627.420898 0.000000 0.000023 0.000009 -11.038128 1628.361328
[R_Mouth01]
1 554.442383 7.659197 -838.223938 29.795891 -23.759109 109.605331 1005.029541
2 554.442383 7.659197 -838.223938 29.795891 -23.759109 109.605331 1005.029541
3 554.442383 7.659197 -838.223938 29.795891 -23.759109 109.605331 1005.029541
[R_mouthFront]
1 551.629089 934.514282 -339.151367 0.000029 -2.803930 79.119133 1136.941162
2 551.629089 934.514282 -339.151367 0.000029 -2.803930 79.119133 1136.941162
3 551.629089 934.514282 -339.151367 0.000029 -2.803930 79.119133 1136.941162
[TopMouth]
1 461.269867 -56.106091 -0.008583 -0.000059 -0.000268 92.025169 464.669525
2 461.269867 -56.106091 -0.008583 -0.000059 -0.000268 92.025169 464.669525
3 461.269867 -56.106091 -0.008583 -0.000059 -0.000268 92.025169 464.669525
[weapon_bone]
1 -987.239868 1448.372803 0.001431 0.000000 89.965736 -31.038221 1752.833740
2 -987.239868 1448.372803 0.001431 0.000000 89.965736 -31.038221 1752.833740
3 -987.239868 1448.372803 0.001431 0.000000 89.965736 -31.038221 1752.833740
